<?xml version="1.0" encoding="UTF-8" standalone="no"?>
<!DOCTYPE svg PUBLIC "-//W3C//DTD SVG 1.1//EN" "http://www.w3.org/Graphics/SVG/1.1/DTD/svg11.dtd">
<svg width="100%" height="100%" viewBox="0 0 476 133" version="1.1" xmlns="http://www.w3.org/2000/svg" xmlns:xlink="http://www.w3.org/1999/xlink" xml:space="preserve" xmlns:serif="http://www.serif.com/" style="fill-rule:evenodd;clip-rule:evenodd;stroke-linejoin:round;stroke-miterlimit:2;">
    <g transform="matrix(1,0,0,1,-101.297,-440.216)">
        <path d="M288,440.216L577.289,440.216L577.289,572.439L371,572.439L288,440.216Z" style="fill:white;"/>
    </g>
    <g transform="matrix(1,0,0,1,-101.297,-440.216)">
        <path d="M312.189,478.75L288,440.216L577.289,440.216L577.289,478.75L530.491,478.75L530.491,491.703L531.828,493.04L546.035,493.04L546.035,533.821L561.745,533.821L561.745,493.04L575.952,493.04L577.289,491.703L577.289,572.439L371,572.439L346.759,533.821L353.495,533.821L353.495,478.75L337.952,478.75L337.952,505.575L320.988,478.75L312.189,478.75ZM387.925,535.493C391.936,535.493 395.725,534.727 399.29,533.194C402.856,531.662 405.962,529.587 408.608,526.969C411.254,524.35 413.343,521.258 414.876,517.693C416.408,514.127 417.174,510.339 417.174,506.328C417.174,502.316 416.408,498.528 414.876,494.962C413.343,491.397 411.254,488.305 408.608,485.686C405.962,483.068 402.856,480.993 399.29,479.461C395.725,477.929 391.936,477.163 387.925,477.163C383.914,477.163 380.125,477.929 376.56,479.461C372.994,480.993 369.888,483.082 367.242,485.728C364.596,488.374 362.507,491.466 360.975,495.004C359.442,498.542 358.676,502.316 358.676,506.328C358.676,510.339 359.442,514.127 360.975,517.693C362.507,521.258 364.596,524.35 367.242,526.969C369.888,529.587 372.994,531.662 376.56,533.194C380.125,534.727 383.914,535.493 387.925,535.493ZM387.925,492.288C389.819,492.288 391.588,492.663 393.232,493.414C394.875,494.163 396.296,495.177 397.494,496.455C398.691,497.732 399.624,499.218 400.293,500.913C400.962,502.607 401.296,504.398 401.296,506.286C401.296,508.175 400.962,509.966 400.293,511.66C399.624,513.354 398.691,514.854 397.494,516.16C396.296,517.465 394.875,518.492 393.232,519.243C391.588,519.992 389.819,520.367 387.925,520.367C386.031,520.367 384.262,519.992 382.619,519.243C380.975,518.492 379.554,517.465 378.357,516.16C377.159,514.854 376.212,513.354 375.515,511.66C374.819,509.966 374.471,508.175 374.471,506.286C374.471,504.398 374.819,502.607 375.515,500.913C376.212,499.218 377.159,497.732 378.357,496.455C379.554,495.177 380.975,494.163 382.619,493.414C384.262,492.663 386.031,492.288 387.925,492.288ZM518.708,533.821L534.92,533.821L514.78,478.75L501.41,478.75L481.27,533.821L497.482,533.821L500.24,526.384L515.95,526.384L518.708,533.821ZM508.095,502.066L511.605,512.762L504.585,512.762L508.095,502.066ZM461.548,533.821L477.008,533.821L477.008,478.75L463.136,478.75C462.356,478.75 461.771,479.085 461.381,479.753L449.264,499.809L437.23,479.753C436.728,479.085 436.116,478.75 435.391,478.75L421.519,478.75L421.519,533.821L437.063,533.821L437.063,508.082L447.091,524.629C447.369,525.075 447.731,525.367 448.177,525.506C448.623,525.646 448.985,525.715 449.264,525.715C449.598,525.715 449.988,525.646 450.433,525.506C450.879,525.367 451.241,525.075 451.52,524.629L461.548,508.082L461.548,533.821Z" style="fill:rgb(247,239,202);"/>
    </g>
    <g transform="matrix(0.718069,0,0,0.718069,-112.379,-338.673)">
        <g transform="matrix(116.378,0,0,116.378,823.57,602)">
        </g>
        <text x="153px" y="602px" style="font-family:'PRIMETIME-Regular', 'PRIMETIME';font-size:116.378px;">w<tspan x="259.719px 352.356px 435.682px 509.699px " y="602px 602px 602px 602px ">ohno</tspan>ma<tspan x="750.252px " y="602px ">t</tspan></text>
    </g>
</svg>
